<svg xmlns="http://www.w3.org/2000/svg" viewBox="268.14 228 464.23 365.77"> <path d="M558,551.7c.42-.77.76-1.58,1.13-2.37L693.42,257.47c1.1-2.38,2.21-4.75,3.29-7.14.38-.82.76-1.54,1.86-1.53,2.47,0,4.95,0,7.77,0-.62,1.5-1,2.61-1.52,3.68Q633,409.06,561.19,565.63c-1.91,4.16-3.88,8.31-5.72,12.5-1.62,3.7-1.38,7.3,1.3,10.44a9.77,9.77,0,0,0,10,3.4c4-.81,6-3.58,7.56-7Q646,429,717.62,273.09c4.56-9.92,9-19.87,13.7-29.75,2.58-5.48.49-13.19-6.71-14.68V228H688.55a.75.75,0,0,1-.06.62c-3.92.86-6,3.63-7.61,7q-8,17.42-16,34.83Q608,394.59,551,518.67c-.54,1.19-1.11,2.36-1.76,3.74-1.5-1-1.52-2.66-2.33-3.83-2.78-4-2.1-7.69-.09-12.06q58.68-127.63,117-255.41c1.22-2.68,2.48-5.35,3.69-8,2.86-6.36-.19-12.72-6.94-14.55h0a1.3,1.3,0,0,0-.22-.53H625a.81.81,0,0,1-.08.61c-3.9.79-6.21,3.37-7.79,6.82q-9.14,19.95-18.31,39.88l-80.35,175c-.37.79-.75,1.57-1.25,2.59-1.62-1.72-2-3.92-3.1-5.67-2.06-3.26-1.73-6.17-.1-9.7q44.14-95.59,88-191.3c1.25-2.72,2.19-5.43,1.5-8.52a9.73,9.73,0,0,0-8.23-7.79,25.39,25.39,0,0,0-3.6-.17c-9.18,0-18.36.17-27.53-.07-5.94-.16-9.61,2.38-12,7.66Q528,290.21,503.65,343q-8.61,18.75-17.22,37.5c-.4.89-.88,1.74-1.54,3.05-1.6-3.5-3-6.64-4.49-9.79-.55-1.21.3-2.1.73-3q7.11-15.66,14.29-31.28,21.68-47.34,43.35-94.69c2-4.34,1.41-8.65-1.57-11.87a8.85,8.85,0,0,0-6.63-3.1c-10.82,0-21.64-.09-32.46,0-4.65,0-7.66,2.75-9.54,6.84l-10.8,23.51Q466.1,285.61,454.4,311c-.39.86-.56,1.9-1.65,2.53L444.66,296c-8.79-19.14-17.65-38.26-26.31-57.46-2-4.51-4.36-8.47-9.09-10.51h-4.59c-.83,1.08-2.22,1.26-3.26,2-3.39,2.44-5.09,5.63-4.58,9.85a15,15,0,0,0,1.57,4.28q21,45.86,42,91.69a5.89,5.89,0,0,1,.11,5.52Q415,396.66,389.65,452a5.27,5.27,0,0,1-1.33,2.19,12.77,12.77,0,0,1-1.92-3.6q-48.87-106.38-97.73-212.78a24.36,24.36,0,0,0-1.8-3.48c-3-4.48-8.44-6-12.91-3.6-5.2,2.76-7.14,8-4.89,13.3.39.91.82,1.79,1.22,2.69l107.48,234.6a32.07,32.07,0,0,0,1.43,3c4.07,7,13.2,7.18,17.55.41a34,34,0,0,0,2.05-4.09L451.15,367a11.36,11.36,0,0,1,1.76-3.27c1.53,2.19,2.21,4.75,3.51,7,1.06,1.82.81,3.39-.05,5.22-4.54,9.69-9,19.43-13.42,29.15q-24,52.23-48,104.46a9.87,9.87,0,0,0-.05,8.83c.85,1.78,1.66,3.57,2.47,5.36,4.27,9.45,8.56,18.89,12.78,28.36,1.42,3.18,3.56,5.47,7,6.35,5.53,1.41,10.11-.77,12.61-6.13,5.2-11.19,10.33-22.4,15.49-33.61q19-41.36,38.06-82.7c.41-.89.55-2,1.74-2.58,1.07,2.33,1.93,4.59,3.1,6.67s.94,3.73,0,5.8Q458,511.48,427.93,577.13c-.5,1.09-1.05,2.17-1.44,3.3a9.8,9.8,0,0,0,7.05,13c4.85,1.25,9.38-1,11.7-6q8-17.25,15.86-34.52,18.88-41.06,37.78-82.11c.46-1,.6-2.29,1.94-2.88.79,1.69,1.53,3.27,2.26,4.85,1.51,3.27,2.92,6.6,4.56,9.8a10,10,0,0,0,8.93,5.72c4.11.15,7-2,9.1-5.41a33.36,33.36,0,0,0,1.59-3.23L625.6,266q3.49-7.59,7-15.17c.46-1,.77-2.09,2.21-2,2.38.11,4.78-.21,7.21.21.1,1.73-.9,3-1.51,4.33q-46.66,101.82-93.38,203.6-11.75,25.6-23.51,51.19a9.2,9.2,0,0,0-.38,7.91q8,17.79,16.06,35.51c1.83,4,5.17,5.75,9.49,5.78A9.82,9.82,0,0,0,558,551.7Zm-92.8-215.38q6.25-13.68,12.58-27.35c8.59-18.63,17.22-37.24,25.7-55.92,1-2.26,2.24-3.16,4.65-2.88a54.91,54.91,0,0,0,5.82,0l-45.14,98.4c-1.64-3.55-2.93-6.4-4.26-9.22C464,338.17,464.81,337.27,465.24,336.32Zm7.27,74.48q-9,19.65-18,39.26Q438.46,485,422.43,520c-.58,1.27-1.18,2.52-1.95,4.17a6.58,6.58,0,0,1-.6-.73c-1.39-3.08-3.6-6.07-3.92-9.26-.3-3,2.17-5.81,3.48-8.67Q443.18,453.52,467,401.61a9.14,9.14,0,0,1,2-3.42c1.5,3.28,3,6.41,4.36,9.56C473.84,408.91,473,409.84,472.51,410.8Zm28.32,7.44c-1.6-3.46-2.85-6.24-4.18-9-.7-1.45.13-2.55.66-3.7q7.71-16.83,15.48-33.62,27.24-59.2,54.47-118.41c.32-.69.68-1.37,1-2.08a1.89,1.89,0,0,1,2-1.25c2.39,0,4.77,0,7.65,0Z" style="fill:white"></path> </svg>